<svg data-v-423bf9ae="" xmlns="http://www.w3.org/2000/svg" viewBox="0 0 551.2061585834116 60" class="font"><!----><!----><!----><g data-v-423bf9ae="" id="0d7aae00-60ac-48b5-8344-fb927b653a52" fill="black" transform="matrix(5.836575485636349,0,0,5.836575485636349,-6.712065575939107,-14.766535573255624)"><path d="M7.99 4.11L2.45 4.11L2.45 7.69L7.83 7.69L7.83 8.77L2.45 8.77L2.45 12.67L1.15 12.67L1.15 3.04L7.99 3.04L7.99 4.11ZM9.46 5.28L10.70 5.28L10.70 9.97L10.70 9.97Q10.70 10.70 10.84 11.10L10.84 11.10L10.84 11.10Q10.99 11.50 11.30 11.68L11.30 11.68L11.30 11.68Q11.61 11.86 12.22 11.86L12.22 11.86L12.22 11.86Q13.11 11.86 13.62 11.25L13.62 11.25L13.62 11.25Q14.14 10.64 14.14 9.56L14.14 9.56L14.14 5.28L15.37 5.28L15.37 11.09L15.37 11.09Q15.37 12.39 15.41 12.67L15.41 12.67L14.25 12.67L14.25 12.67Q14.24 12.64 14.23 12.49L14.23 12.49L14.23 12.49Q14.23 12.34 14.22 12.14L14.22 12.14L14.22 12.14Q14.21 11.95 14.19 11.41L14.19 11.41L14.17 11.41L14.17 11.41Q13.75 12.17 13.19 12.49L13.19 12.49L13.19 12.49Q12.63 12.81 11.81 12.81L11.81 12.81L11.81 12.81Q10.59 12.81 10.02 12.21L10.02 12.21L10.02 12.21Q9.46 11.60 9.46 10.21L9.46 10.21L9.46 5.28ZM18.51 12.67L17.28 12.67L17.28 2.53L18.51 2.53L18.51 12.67ZM21.62 12.67L20.39 12.67L20.39 2.53L21.62 2.53L21.62 12.67ZM35.42 12.67L33.84 12.67L28.69 4.47L28.72 5.13L28.76 6.28L28.76 12.67L27.60 12.67L27.60 3.04L29.11 3.04L34.32 11.30L34.32 11.30Q34.24 9.96 34.24 9.36L34.24 9.36L34.24 3.04L35.42 3.04L35.42 12.67ZM38.73 3.71L37.50 3.71L37.50 2.53L38.73 2.53L38.73 3.71ZM38.73 12.67L37.50 12.67L37.50 5.28L38.73 5.28L38.73 12.67ZM43.46 11.71L43.46 12.62L43.46 12.62Q42.85 12.78 42.21 12.78L42.21 12.78L42.21 12.78Q40.74 12.78 40.74 11.11L40.74 11.11L40.74 6.17L39.88 6.17L39.88 5.28L40.78 5.28L41.15 3.62L41.97 3.62L41.97 5.28L43.33 5.28L43.33 6.17L41.97 6.17L41.97 10.84L41.97 10.84Q41.97 11.38 42.14 11.59L42.14 11.59L42.14 11.59Q42.31 11.81 42.75 11.81L42.75 11.81L42.75 11.81Q42.99 11.81 43.46 11.71L43.46 11.71ZM45.76 12.67L44.53 12.67L44.53 7L44.53 7Q44.53 6.22 44.49 5.28L44.49 5.28L45.65 5.28L45.65 5.28Q45.71 6.54 45.71 6.79L45.71 6.79L45.73 6.79L45.73 6.79Q46.03 5.84 46.41 5.49L46.41 5.49L46.41 5.49Q46.79 5.14 47.49 5.14L47.49 5.14L47.49 5.14Q47.74 5.14 47.99 5.21L47.99 5.21L47.99 6.34L47.99 6.34Q47.74 6.27 47.33 6.27L47.33 6.27L47.33 6.27Q46.57 6.27 46.16 6.93L46.16 6.93L46.16 6.93Q45.76 7.59 45.76 8.82L45.76 8.82L45.76 12.67ZM55.42 8.97L55.42 8.97L55.42 8.97Q55.42 10.91 54.56 11.86L54.56 11.86L54.56 11.86Q53.71 12.81 52.08 12.81L52.08 12.81L52.08 12.81Q50.46 12.81 49.64 11.82L49.64 11.82L49.64 11.82Q48.81 10.83 48.81 8.97L48.81 8.97L48.81 8.97Q48.81 5.14 52.12 5.14L52.12 5.14L52.12 5.14Q53.82 5.14 54.62 6.07L54.62 6.07L54.62 6.07Q55.42 7.01 55.42 8.97ZM54.13 8.97L54.13 8.97L54.13 8.97Q54.13 7.44 53.67 6.74L53.67 6.74L53.67 6.74Q53.22 6.05 52.14 6.05L52.14 6.05L52.14 6.05Q51.06 6.05 50.58 6.76L50.58 6.76L50.58 6.76Q50.10 7.46 50.10 8.97L50.10 8.97L50.10 8.97Q50.10 10.43 50.58 11.17L50.58 11.17L50.58 11.17Q51.05 11.90 52.07 11.90L52.07 11.90L52.07 11.90Q53.18 11.90 53.65 11.19L53.65 11.19L53.65 11.19Q54.13 10.48 54.13 8.97ZM65.31 3.96L65.31 3.96L65.31 3.96Q63.71 3.96 62.82 4.99L62.82 4.99L62.82 4.99Q61.93 6.02 61.93 7.81L61.93 7.81L61.93 7.81Q61.93 9.58 62.86 10.66L62.86 10.66L62.86 10.66Q63.79 11.74 65.37 11.74L65.37 11.74L65.37 11.74Q67.39 11.74 68.41 9.73L68.41 9.73L69.47 10.27L69.47 10.27Q68.88 11.51 67.80 12.16L67.80 12.16L67.80 12.16Q66.73 12.81 65.30 12.81L65.30 12.81L65.30 12.81Q63.85 12.81 62.78 12.21L62.78 12.21L62.78 12.21Q61.72 11.60 61.16 10.48L61.16 10.48L61.16 10.48Q60.61 9.35 60.61 7.81L60.61 7.81L60.61 7.81Q60.61 5.51 61.85 4.20L61.85 4.20L61.85 4.20Q63.10 2.90 65.30 2.90L65.30 2.90L65.30 2.90Q66.83 2.90 67.87 3.50L67.87 3.50L67.87 3.50Q68.90 4.10 69.38 5.28L69.38 5.28L68.15 5.69L68.15 5.69Q67.81 4.85 67.07 4.41L67.07 4.41L67.07 4.41Q66.33 3.96 65.31 3.96ZM72.18 12.67L70.95 12.67L70.95 2.53L72.18 2.53L72.18 12.67ZM75.28 3.71L74.05 3.71L74.05 2.53L75.28 2.53L75.28 3.71ZM75.28 12.67L74.05 12.67L74.05 5.28L75.28 5.28L75.28 12.67ZM83.39 9.24L78.11 9.24L78.11 9.24Q78.11 10.51 78.64 11.20L78.64 11.20L78.64 11.20Q79.17 11.89 80.18 11.89L80.18 11.89L80.18 11.89Q80.98 11.89 81.46 11.57L81.46 11.57L81.46 11.57Q81.94 11.25 82.11 10.75L82.11 10.75L83.19 11.06L83.19 11.06Q82.53 12.81 80.18 12.81L80.18 12.81L80.18 12.81Q78.54 12.81 77.68 11.83L77.68 11.83L77.68 11.83Q76.82 10.86 76.82 8.93L76.82 8.93L76.82 8.93Q76.82 7.10 77.68 6.12L77.68 6.12L77.68 6.12Q78.54 5.14 80.13 5.14L80.13 5.14L80.13 5.14Q83.39 5.14 83.39 9.07L83.39 9.07L83.39 9.24ZM78.13 8.29L82.12 8.29L82.12 8.29Q82.02 7.12 81.53 6.59L81.53 6.59L81.53 6.59Q81.03 6.05 80.11 6.05L80.11 6.05L80.11 6.05Q79.21 6.05 78.69 6.65L78.69 6.65L78.69 6.65Q78.17 7.25 78.13 8.29L78.13 8.29ZM90.89 12.67L89.65 12.67L89.65 7.98L89.65 7.98Q89.65 7.25 89.51 6.85L89.51 6.85L89.51 6.85Q89.37 6.45 89.05 6.27L89.05 6.27L89.05 6.27Q88.74 6.09 88.13 6.09L88.13 6.09L88.13 6.09Q87.24 6.09 86.73 6.70L86.73 6.70L86.73 6.70Q86.21 7.31 86.21 8.39L86.21 8.39L86.21 12.67L84.98 12.67L84.98 6.86L84.98 6.86Q84.98 5.56 84.94 5.28L84.94 5.28L86.11 5.28L86.11 5.28Q86.11 5.31 86.12 5.46L86.12 5.46L86.12 5.46Q86.13 5.61 86.14 5.81L86.14 5.81L86.14 5.81Q86.15 6.00 86.16 6.54L86.16 6.54L86.18 6.54L86.18 6.54Q86.60 5.78 87.16 5.46L87.16 5.46L87.16 5.46Q87.72 5.14 88.55 5.14L88.55 5.14L88.55 5.14Q89.76 5.14 90.33 5.75L90.33 5.75L90.33 5.75Q90.89 6.35 90.89 7.75L90.89 7.75L90.89 12.67ZM95.59 11.71L95.59 12.62L95.59 12.62Q94.98 12.78 94.34 12.78L94.34 12.78L94.34 12.78Q92.87 12.78 92.87 11.11L92.87 11.11L92.87 6.17L92.01 6.17L92.01 5.28L92.91 5.28L93.28 3.62L94.10 3.62L94.10 5.28L95.46 5.28L95.46 6.17L94.10 6.17L94.10 10.84L94.10 10.84Q94.10 11.38 94.27 11.59L94.27 11.59L94.27 11.59Q94.45 11.81 94.88 11.81L94.88 11.81L94.88 11.81Q95.12 11.81 95.59 11.71L95.59 11.71Z"></path></g><!----><!----></svg>